# xmcd
#
# Track frame offsets:
#	150
#	21525
#	37875
#	60525
#	73275
#	97875
#	118200
#	202650
#
# Disc length: 2788 seconds
#
# Revision: 1
# Processed by: cddbd v1.5.1PL0 Copyright (c) Steve Scherf et al.
# Submitted via: Audio-CD-Archiv 4.00.519
#
DISCID=6a0ae208
DTITLE=Marriott, Steve All Stars - Clear Through The Night - CD 2 (Instrumental Jam Session)
DYEAR=1999
DGENRE=blues
TTITLE0=unbekannt - Wham Bam Thankyou Mam
TTITLE1=unbekannt - Over You
TTITLE2=unbekannt - Wonderful World
TTITLE3=unbekannt - Suck It And See
TTITLE4=unbekannt - Still Suckin'
TTITLE5=unbekannt - Vagabond Lady
TTITLE6=unbekannt - Midnight Rollin'
TTITLE7=unbekannt - Unknown Track
EXTD=
EXTT0=
EXTT1=
EXTT2=
EXTT3=
EXTT4=
EXTT5=
EXTT6=
EXTT7=
PLAYORDER=
